# xmcd
#
# Track frame offsets:
#	183
#	21010
#	43930
#	65953
#	83718
#	105635
#	129795
#	153398
#	176790
#	202985
#	222458
#	244848
#	265725
#	285963
#
# Disc length: 4112 seconds
#
# Revision: 4
# Processed by: cddbd v1.5.1PL0 Copyright (c) Steve Scherf et al.
# Submitted via: EasyCDDAExtractor 7.5.0.1
#
DISCID=c5100e0e
DTITLE=Various Artist - Silky Soul Vol. 2
DYEAR=1990
DGENRE=Soul
TTITLE0=Taja Sevelle - Love is contagious
TTITLE1=Bobby Brown - Rock witcha
TTITLE2=Sheena Easton - Follow my rainbow
TTITLE3=Roger - I want to be your man
TTITLE4=Martika - Toy soldier
TTITLE5=L L Cool J - I need love
TTITLE6=Girl Street - Turn into love
TTITLE7=J. T. And The Big Family - Moment in soul
TTITLE8=Karyn White - Superwoman
TTITLE9=Babyface - Given a chance
TTITLE10=Alyson Williams - I need your lovin
TTITLE11=Sybil - Walk on by
TTITLE12=Claudya - Let s not begin
TTITLE13=Prince - If i was your girlfriend
EXTD=
EXTT0=Taja Sevelle
EXTT1=Bobby brown
EXTT2=Sheena Easton
EXTT3=Roger
EXTT4=Martika
EXTT5=LL Cool J
EXTT6=Girl street
EXTT7=JT and the big family
EXTT8=Karyn white
EXTT9=Babyface
EXTT10=Allyson Williams
EXTT11=Sybil
EXTT12=Claudia
EXTT13=Prince
PLAYORDER=
